<svg width="44" height="44" viewBox="0 0 44 44" fill="none" xmlns="http://www.w3.org/2000/svg">
  <path
    d="M23.5609 6.875L42.1665 6.87499L42.1665 10.9185L27.3415 10.9185C26.4919 14.608 20.9131 15.6323 18.2299 15.6834C19.4193 15.6834 22.7411 15.5172 25.4937 16.5139C28.9345 17.7598 31.5681 21.4099 31.0371 27.4642C30.6124 32.3077 34.4567 35.9229 36.4319 37.125L14.8104 37.125L14.8104 32.6006C14.8104 32.6006 18.4423 32.8367 23.1999 31.0707C29.1468 28.8631 26.4919 20.4263 21.8405 19.858C16.9555 19.2612 3.87214 14.8746 1.83317 10.9185L23.5609 10.9185L23.5609 6.875Z"
    fill="#0C5D56"
  />
</svg>
