<svg width="36" height="36" viewBox="0 0 36 36" fill="none" xmlns="http://www.w3.org/2000/svg">
<rect width="35.9655" height="35.9655" rx="17.9828" fill="#005F5A"/>
<path d="M20.8429 14.3043C20.8429 15.8843 19.562 17.1651 17.982 17.1651C16.402 17.1651 15.1211 15.8843 15.1211 14.3043C15.1211 12.7242 16.402 11.4434 17.982 11.4434C19.562 11.4434 20.8429 12.7242 20.8
<path d="M22.8869 21.6607C22.8869 23.2407 20.6911 24.5216 17.9825 24.5216C15.2739 24.5216 13.0781 23.2407 13.0781 21.6607C13.0781 20.0807 15.2739 18.7998 17.9825 18.7998C20.6911 18.7998 22.8869 20.080
<path d="M13.9953 12.2607C14.1404 12.2607 14.282 12.275 14.4188 12.3021C14.0856 12.8938 13.8956 13.5768 13.8956 14.3042C13.8956 15.0139 14.0765 15.6814 14.3947 16.263C14.2654 16.2871 14.1319 16.2997 1
<path d="M12.6264 23.6928C12.1622 23.1379 11.8521 22.457 11.8521 21.6608C11.8521 20.889 12.1436 20.2255 12.5843 19.68C11.0274 19.8008 9.80859 20.6523 9.80859 21.6848C9.80859 22.7271 11.0488 23.5848 12
<path d="M22.0701 14.3042C22.0701 15.0139 21.8892 15.6814 21.571 16.263C21.7002 16.2871 21.8337 16.2997 21.9703 16.2997C23.1264 16.2997 24.0637 15.3956 24.0637 14.2802C24.0637 13.1649 23.1264 12.2607 
<path d="M23.3392 23.6928C24.9168 23.5848 26.157 22.7271 26.157 21.6848C26.157 20.6523 24.9382 19.8008 23.3813 19.68C23.8221 20.2255 24.1135 20.889 24.1135 21.6608C24.1135 22.457 23.8034 23.1379 23.33
</svg>
