<svg width="36" height="36" viewBox="0 0 36 36" fill="none" xmlns="http://www.w3.org/2000/svg">
<rect width="36" height="36" rx="18" fill="#005F5A"/>
<path d="M20.8429 14.3218C20.8429 15.9019 19.562 17.1827 17.982 17.1827C16.402 17.1827 15.1211 15.9019 15.1211 14.3218C15.1211 12.7418 16.402 11.4609 17.982 11.4609C19.562 11.4609 20.8429 12.7418 20.8
<path d="M22.8869 21.6783C22.8869 23.2583 20.6911 24.5392 17.9825 24.5392C15.2739 24.5392 13.0781 23.2583 13.0781 21.6783C13.0781 20.0982 15.2739 18.8174 17.9825 18.8174C20.6911 18.8174 22.8869 20.098
<path d="M13.9953 12.2783C14.1404 12.2783 14.282 12.2926 14.4188 12.3197C14.0856 12.9114 13.8956 13.5944 13.8956 14.3218C13.8956 15.0315 14.0765 15.699 14.3947 16.2806C14.2654 16.3047 14.1319 16.3173 
<path d="M12.6264 23.7104C12.1622 23.1555 11.8521 22.4746 11.8521 21.6784C11.8521 20.9066 12.1436 20.243 12.5843 19.6976C11.0274 19.8184 9.80859 20.6699 9.80859 21.7024C9.80859 22.7446 11.0488 23.6024
<path d="M22.0701 14.3218C22.0701 15.0315 21.8892 15.699 21.571 16.2806C21.7002 16.3047 21.8337 16.3173 21.9703 16.3173C23.1264 16.3173 24.0637 15.4131 24.0637 14.2978C24.0637 13.1825 23.1264 12.2783 
<path d="M23.3392 23.7104C24.9168 23.6024 26.157 22.7446 26.157 21.7024C26.157 20.6699 24.9382 19.8184 23.3813 19.6976C23.8221 20.243 24.1135 20.9066 24.1135 21.6784C24.1135 22.4746 23.8034 23.1555 23
</svg>
